HIERARCHY
ROOT Pelvis
{
	OFFSET 0.000000 0.000000 0.000000
	CHANNELS 6 Xposition Yposition Zposition Xrotation Yrotation Zrotation
	JOINT LeftUpLeg_virtual
	{
		OFFSET 0.000000 0.000000 0.000000
		CHANNELS 3 Xrotation Yrotation Zrotation
		JOINT LeftUpLeg
		{
			OFFSET 18.735201 -5.666702 -4.541200
			CHANNELS 3 Xrotation Yrotation Zrotation
			JOINT LeftLeg
			{
				OFFSET -0.021200 -31.938179 0.493100
				CHANNELS 3 Xrotation Yrotation Zrotation
				JOINT LeftFoot
				{
					OFFSET 0.021200 -31.938179 -4.336299
					CHANNELS 3 Xrotation Yrotation Zrotation
					JOINT LeftToeBase
					{
						OFFSET 0.943001 -26.722000 15.023500
						CHANNELS 3 Xrotation Yrotation Zrotation
						End Site
						{
							OFFSET 0 0 0
						}
					}
				}
			}
		}
	}
	JOINT RightUpLeg_virtual
	{
		OFFSET 0.000000 0.000000 0.000000
		CHANNELS 3 Xrotation Yrotation Zrotation
		JOINT RightUpLeg
		{
			OFFSET -18.735201 -5.666702 -4.541200
			CHANNELS 3 Xrotation Yrotation Zrotation
			JOINT RightLeg
			{
				OFFSET 0.018946 -31.938133 0.493100
				CHANNELS 3 Xrotation Yrotation Zrotation
				JOINT RightFoot
				{
					OFFSET -0.018946 -31.938126 -4.336299
					CHANNELS 3 Xrotation Yrotation Zrotation
					JOINT RightToeBase
					{
						OFFSET -0.943001 -26.722004 15.023500
						CHANNELS 3 Xrotation Yrotation Zrotation
						End Site
						{
							OFFSET 0 0 0
						}
					}
				}
			}
		}
	}
	JOINT Hips_virtual
	{
		OFFSET 0.000000 0.000000 0.000000
		CHANNELS 3 Xrotation Yrotation Zrotation
		JOINT Hips
		{
			OFFSET -0.000000 -0.000000 -0.000000
			CHANNELS 3 Xrotation Yrotation Zrotation
			JOINT Spine
			{
				OFFSET 0.000000 10.199997 -0.299500
				CHANNELS 3 Xrotation Yrotation Zrotation
				JOINT Spine1
				{
					OFFSET 0.000000 11.900002 -1.516600
					CHANNELS 3 Xrotation Yrotation Zrotation
					JOINT Spine2
					{
						OFFSET 0.000000 13.600006 -2.842500
						CHANNELS 3 Xrotation Yrotation Zrotation
						JOINT Neck_virtual
						{
							OFFSET 0.000000 0.000000 0.000000
							CHANNELS 3 Xrotation Yrotation Zrotation
							JOINT Neck
							{
								OFFSET 0.000000 9.624100 -2.890100
								CHANNELS 3 Xrotation Yrotation Zrotation
								JOINT Head
								{
									OFFSET 0.000000 14.068802 -1.351900
									CHANNELS 3 Xrotation Yrotation Zrotation
									End Site
									{
										OFFSET 0 0 0
									}
								}
							}
						}
						JOINT LeftShoulder_virtual
						{
							OFFSET 0.000000 0.000000 0.000000
							CHANNELS 3 Xrotation Yrotation Zrotation
							JOINT LeftShoulder
							{
								OFFSET 15.263000 10.923401 -0.547700
								CHANNELS 3 Xrotation Yrotation Zrotation
								JOINT LeftArm
								{
									OFFSET 25.438599 -2.830597 -13.032500
									CHANNELS 3 Xrotation Yrotation Zrotation
									JOINT LeftForeArm
									{
										OFFSET 29.960503 0.000000 0.000000
										CHANNELS 3 Xrotation Yrotation Zrotation
										JOINT LeftHand
										{
											OFFSET 27.849251 0.000000 0.000000
											CHANNELS 3 Xrotation Yrotation Zrotation
											End Site
											{
												OFFSET 0 0 0
											}
										}
									}
								}
							}
						}
						JOINT RightShoulder_virtual
						{
							OFFSET 0.000000 0.000000 0.000000
							CHANNELS 3 Xrotation Yrotation Zrotation
							JOINT RightShoulder
							{
								OFFSET -15.263000 10.923401 -0.547700
								CHANNELS 3 Xrotation Yrotation Zrotation
								JOINT RightArm
								{
									OFFSET -25.438599 -2.830597 -13.032500
									CHANNELS 3 Xrotation Yrotation Zrotation
									JOINT RightForeArm
									{
										OFFSET -29.960503 0.000000 0.000000
										CHANNELS 3 Xrotation Yrotation Zrotation
										JOINT RightHand
										{
											OFFSET -27.849251 0.000000 0.000000
											CHANNELS 3 Xrotation Yrotation Zrotation
											End Site
											{
												OFFSET 0 0 0
											}
										}
									}
								}
							}
						}
					}
				}
			}
		}
	}
}
MOTION
Frames: 13
Frame Time: 0.03333333
-6.951003 83.041321 2.857573 0.000000 0.000000 0.000000 4.170306 -44.959816 6.579878 -40.392759 -3.382516 19.475984 43.191142 -6.406452 -5.006028 -8.278630 -3.730018 -17.315476 0.000000 0.000000 0.000000 7.409194 -48.367814 -0.182230 -25.742155 -17.839259 -22.768941 43.173059 7.834834 0.090305 -12.293148 3.411934 17.083551 0.000000 0.000000 0.000000 -2.851843 -28.227548 -0.043476 -3.815914 -24.175163 -3.233764 10.107603 -2.506398 -3.460327 5.110072 -0.420585 -2.403035 0.000000 0.000000 0.000000 4.898727 1.741243 -0.921631 0.395682 3.023917 -0.021879 0.000000 0.000000 0.000000 -0.322582 -2.106809 -3.168776 -5.505636 -8.127263 -12.629356 1.991603 -7.626541 -35.089165 8.194497 -29.323030 1.866822 0.000000 0.000000 0.000000 1.439112 -1.009887 -1.314835 -1.651492 1.672935 -3.452551 -22.712892 8.503752 35.760617 -53.908385 83.243320 51.023426 0.000000 0.000000 0.000000 
-7.113915 83.139137 2.924289 0.000000 0.000000 0.000000 4.154890 -44.776087 6.568126 -40.323798 -3.349218 19.474075 43.130742 -6.419081 -4.967553 -8.295957 -3.761159 -17.288515 0.000000 0.000000 0.000000 7.614423 -48.211116 -0.141150 -25.432551 -17.849543 -22.743266 43.106283 7.772124 0.098243 -12.328713 3.353171 17.024380 0.000000 0.000000 0.000000 -2.991983 -28.428777 -0.071836 -4.068381 -24.005096 -3.518848 9.840820 -2.586148 -3.251369 4.971540 -0.455331 -2.250388 0.000000 0.000000 0.000000 5.018486 1.579256 -0.749695 0.454394 2.971814 0.078903 0.000000 0.000000 0.000000 -0.485027 -2.153959 -3.195643 -5.754650 -8.125143 -12.564350 2.752168 -8.215746 -34.886919 8.700950 -29.546176 1.926988 0.000000 0.000000 0.000000 1.298895 -1.060713 -1.190302 -1.841625 1.399657 -3.130090 -22.008401 8.202826 35.612470 -56.119348 83.364426 53.441285 0.000000 0.000000 0.000000 
-7.425198 83.336647 3.046155 0.000000 0.000000 0.000000 4.131594 -44.439116 6.537534 -40.186521 -3.282883 19.459648 43.001003 -6.434575 -4.880898 -8.344144 -3.817490 -17.208808 0.000000 0.000000 0.000000 7.981900 -47.941439 -0.068420 -24.866709 -17.874159 -22.694610 42.951675 7.621444 0.126493 -12.409367 3.204570 16.907262 0.000000 0.000000 0.000000 -3.260484 -28.806422 -0.124033 -4.493153 -23.613690 -4.006649 9.346801 -2.720430 -2.845870 4.716652 -0.516496 -1.957935 0.000000 0.000000 0.000000 5.195986 1.278213 -0.413434 0.547489 2.869379 0.274867 0.000000 0.000000 0.000000 -0.784991 -2.235757 -3.237535 -6.210014 -8.107323 -12.407653 4.154310 -9.329312 -34.476688 9.651774 -30.030402 2.051765 0.000000 0.000000 0.000000 1.029976 -1.152076 -0.949431 -2.203715 0.909978 -2.505915 -20.822894 7.575114 35.457442 -60.912761 83.535222 58.630754 0.000000 0.000000 0.000000 
-7.852447 83.633888 3.209987 0.000000 0.000000 0.000000 4.112389 -44.002234 6.474000 -39.981550 -3.183902 19.412446 42.793212 -6.436809 -4.730325 -8.440550 -3.889283 -17.034444 0.000000 0.000000 0.000000 8.442128 -47.631547 0.023011 -24.134316 -17.919855 -22.627001 42.679581 7.342430 0.192775 -12.547764 2.917909 16.732507 0.000000 0.000000 0.000000 -3.633004 -29.309445 -0.191197 -4.965234 -22.921338 -4.565376 8.692749 -2.868365 -2.268938 4.380915 -0.589510 -1.549386 0.000000 0.000000 0.000000 5.326897 0.876855 0.068617 0.632829 2.721041 0.553568 0.000000 0.000000 0.000000 -1.179997 -2.331050 -3.273584 -6.798938 -8.049299 -12.116440 6.002002 -10.846819 -33.853303 10.943166 -30.819886 2.251623 0.000000 0.000000 0.000000 0.650266 -1.266521 -0.606967 -2.708675 0.297475 -1.614739 -19.539049 6.569337 35.555393 -68.798856 83.601871 67.073072 0.000000 0.000000 0.000000 
-8.344746 84.023697 3.414500 0.000000 0.000000 0.000000 4.109256 -43.530247 6.357969 -39.709245 -3.053086 19.305379 42.511989 -6.408711 -4.499822 -8.592276 -3.966625 -16.722453 0.000000 0.000000 0.000000 8.922852 -47.359613 0.122524 -23.334745 -17.993384 -22.545249 42.271122 6.894956 0.309514 -12.749607 2.448817 16.496182 0.000000 0.000000 0.000000 -4.073203 -29.860723 -0.261258 -5.368255 -21.855837 -5.064776 7.955375 -2.987951 -1.558251 4.000676 -0.657157 -1.055950 0.000000 0.000000 0.000000 5.297455 0.419283 0.663635 0.662119 2.535012 0.894518 0.000000 0.000000 0.000000 -1.621649 -2.416210 -3.278811 -7.439013 -7.921322 -11.647867 8.081791 -12.610781 -33.018733 12.458011 -31.922467 2.542181 0.000000 0.000000 0.000000 0.177470 -1.384362 -0.181476 -3.325928 -0.337275 -0.495894 -18.591785 5.105771 36.236667 -79.628913 83.314402 78.589120 0.000000 0.000000 0.000000 
-8.840179 84.487831 3.678777 0.000000 0.000000 0.000000 4.130827 -43.088703 6.168799 -39.370194 -2.892862 19.109867 42.184754 -6.337660 -4.178771 -8.785720 -4.043001 -16.243325 0.000000 0.000000 0.000000 9.368734 -47.186123 0.222626 -22.551558 -18.098471 -22.456279 41.735926 6.253176 0.474748 -13.004343 1.775410 16.187553 0.000000 0.000000 0.000000 -4.537487 -30.363428 -0.322011 -5.639362 -20.388484 -5.421333 7.204295 -3.048846 -0.762149 3.603814 -0.703590 -0.512231 0.000000 0.000000 0.000000 5.019490 -0.053602 1.325014 0.594790 2.323813 1.269819 0.000000 0.000000 0.000000 -2.067006 -2.471291 -3.229902 -8.059154 -7.697101 -10.973875 10.207937 -14.452653 -31.985243 14.087264 -33.284232 2.938002 0.000000 0.000000 0.000000 -0.374451 -1.488511 0.307483 -4.028828 -0.912014 0.813445 -18.350751 3.070610 37.826732 -91.543898 82.366651 91.296010 0.000000 0.000000 0.000000 
-9.281045 84.996994 4.040370 0.000000 0.000000 0.000000 4.181691 -42.735722 5.892009 -38.966127 -2.708966 18.803670 41.862011 -6.219336 -3.765917 -8.985226 -4.117480 -15.590387 0.000000 0.000000 0.000000 9.750658 -47.137789 0.316114 -21.836885 -18.232973 -22.370510 41.119959 5.414112 0.669209 -13.280995 0.907688 15.789662 0.000000 0.000000 0.000000 -4.984280 -30.717102 -0.365849 -5.783610 -18.557404 -5.617793 6.492431 -3.038396 0.065481 3.207410 -0.717628 0.048008 0.000000 0.000000 0.000000 4.455801 -0.507467 1.998465 0.409698 2.103781 1.647645 0.000000 0.000000 0.000000 -2.485890 -2.484131 -3.110307 -8.613771 -7.363768 -10.089481 12.238023 -16.220840 -30.776580 15.737278 -34.796334 3.442990 0.000000 0.000000 0.000000 -0.993366 -1.567554 0.841272 -4.793753 -1.375019 2.279229 -19.021075 0.320681 40.546820 -101.700308 80.519727 102.334914 0.000000 0.000000 0.000000 
-9.629485 85.515274 4.543758 0.000000 0.000000 0.000000 4.263416 -42.515025 5.526355 -38.500865 -2.511381 18.378769 41.606664 -6.059246 -3.270811 -9.142218 -4.194773 -14.782167 0.000000 0.000000 0.000000 10.065033 -47.200627 0.394948 -21.208222 -18.387380 -22.299625 40.499600 4.399883 0.860890 -13.531470 -0.113839 15.284116 0.000000 0.000000 0.000000 -5.383992 -30.841149 -0.393847 -5.854027 -16.469500 -5.691174 5.854311 -2.960062 0.873251 2.821333 -0.694543 0.595705 0.000000 0.000000 0.000000 3.627608 -0.913453 2.632147 0.110425 1.893502 1.997971 0.000000 0.000000 0.000000 -2.862578 -2.451455 -2.913411 -9.086124 -6.929448 -9.013131 14.065847 -17.804242 -29.431104 17.327328 -36.327693 4.042501 0.000000 0.000000 0.000000 -1.663147 -1.616540 1.402612 -5.594969 -1.704382 3.866285 -20.584553 -3.278233 44.413489 -108.562531 77.689044 110.159046 0.000000 0.000000 0.000000 
-9.875345 86.007553 5.224945 0.000000 0.000000 0.000000 4.375605 -42.449547 5.087126 -37.981282 -2.313407 17.845976 41.476693 -5.871885 -2.712453 -9.210453 -4.283644 -13.858223 0.000000 0.000000 0.000000 10.327366 -47.320882 0.453912 -20.654806 -18.544805 -22.249712 39.964086 3.255057 1.014557 -13.700454 -1.227049 14.658660 0.000000 0.000000 0.000000 -5.723967 -30.696926 -0.416307 -5.914508 -14.277894 -5.701862 5.309256 -2.827871 1.620917 2.453241 -0.636445 1.109214 0.000000 0.000000 0.000000 2.602784 -1.246581 3.187105 -0.277962 1.711234 2.298518 0.000000 0.000000 0.000000 -3.192897 -2.377585 -2.643178 -9.482003 -6.423877 -7.781022 15.611533 -19.144465 -28.004757 18.786946 -37.763180 4.701902 0.000000 0.000000 0.000000 -2.358060 -1.636123 1.974761 -6.400139 -1.900738 5.532151 -22.805501 -7.770915 49.185025 -112.312052 73.922359 114.933533 0.000000 0.000000 0.000000 
-10.033190 86.447418 6.098903 0.000000 0.000000 0.000000 4.514997 -42.536683 4.602715 -37.419137 -2.128666 17.233476 41.507767 -5.677912 -2.115685 -9.161077 -4.394449 -12.870489 0.000000 0.000000 0.000000 10.564148 -47.412342 0.496552 -20.148431 -18.682384 -22.213324 39.593319 2.040793 1.101390 -13.738158 -2.359839 13.914066 0.000000 0.000000 0.000000 -6.004450 -30.296967 -0.447788 -6.009591 -12.145964 -5.702480 4.865634 -2.660965 2.284873 2.111298 -0.551574 1.575304 0.000000 0.000000 0.000000 1.471638 -1.486947 3.643862 -0.718790 1.571753 2.538452 0.000000 0.000000 0.000000 -3.478883 -2.271878 -2.312483 -9.818152 -5.891040 -6.439320 16.824540 -20.231802 -26.568083 20.059658 -39.025013 5.372615 0.000000 0.000000 0.000000 -3.041488 -1.631001 2.540578 -7.169931 -1.979293 7.223446 -25.318260 -13.024912 54.404840 -113.744588 69.368023 117.423205 0.000000 0.000000 0.000000 
-10.131264 86.822365 7.154221 0.000000 0.000000 0.000000 4.673339 -42.748426 4.105729 -36.833093 -1.967314 16.579523 41.703916 -5.500089 -1.506453 -8.990657 -4.536811 -11.872970 0.000000 0.000000 0.000000 10.804695 -47.369131 0.537628 -19.654571 -18.773858 -22.166259 39.439428 0.827016 1.104775 -13.611548 -3.440722 13.067088 0.000000 0.000000 0.000000 -6.229242 -29.697625 -0.499268 -6.154204 -10.214595 -5.720719 4.523350 -2.480897 2.858272 1.803403 -0.452699 1.988259 0.000000 0.000000 0.000000 0.320997 -1.623778 4.002823 -1.175553 1.483322 2.718482 0.000000 0.000000 0.000000 -3.723499 -2.145990 -1.940023 -10.110777 -5.376383 -5.037719 17.697771 -21.086162 -25.195714 21.111018 -40.070418 6.002331 0.000000 0.000000 0.000000 -3.670677 -1.608302 3.082632 -7.862933 -1.963521 8.878050 -27.769280 -18.712529 59.535303 -113.570917 64.271984 118.288030 0.000000 0.000000 0.000000 
-10.198424 87.134895 8.355366 0.000000 0.000000 0.000000 4.835744 -43.038347 3.622707 -36.249508 -1.833367 15.922464 42.039971 -5.358937 -0.907742 -8.719390 -4.717611 -10.913041 0.000000 0.000000 0.000000 11.072899 -47.083988 0.598435 -19.142467 -18.793206 -22.072825 39.518016 -0.316904 1.020879 -13.310811 -4.407132 12.147848 0.000000 0.000000 0.000000 -6.396837 -28.977730 -0.571536 -6.340372 -8.585282 -5.757133 4.275138 -2.310472 3.346307 1.534752 -0.354828 2.347830 0.000000 0.000000 0.000000 -0.783301 -1.659476 4.279117 -1.620511 1.445892 2.847811 0.000000 0.000000 0.000000 -3.926884 -2.011613 -1.546899 -10.368100 -4.914720 -3.626276 18.281454 -21.730663 -23.952188 21.934618 -40.872446 6.544129 0.000000 0.000000 0.000000 -4.205688 -1.576105 3.584982 -8.443613 -1.880210 10.433862 -29.935357 -24.399936 64.105116 -112.266979 58.970801 117.934418 0.000000 0.000000 0.000000 
-10.254440 87.398964 9.649794 0.000000 0.000000 0.000000 4.981582 -43.353769 3.167345 -35.700303 -1.724339 15.292288 42.474091 -5.269099 -0.337345 -8.380933 -4.939459 -10.026223 0.000000 0.000000 0.000000 11.379706 -46.470193 0.696582 -18.593288 -18.719044 -21.898058 39.810307 -1.332475 0.855545 -12.850080 -5.212021 11.192715 0.000000 0.000000 0.000000 -6.498306 -28.214133 -0.653934 -6.547722 -7.318612 -5.793579 4.107261 -2.171824 3.759602 1.306219 -0.272209 2.656812 0.000000 0.000000 0.000000 -1.801962 -1.610284 4.494750 -2.037547 1.451269 2.939607 0.000000 0.000000 0.000000 -4.084996 -1.878693 -1.153832 -10.588167 -4.523599 -2.254981 18.680646 -22.170323 -22.883576 22.550288 -41.401451 6.960848 0.000000 0.000000 0.000000 -4.618947 -1.541884 4.035973 -8.890388 -1.754641 11.841459 -31.760052 -29.684224 67.790980 -110.110586 53.858337 116.558817 0.000000 0.000000 0.000000 
